<!-- by TradingView --><svg width="18" height="18" viewBox="0 0 18 18" xmlns="http://www.w3.org/2000/svg"><path d="M0 18h18V0H0v18z" fill="#EF5350" shape-rendering="crispEdges"/><path d="M0 9h9V0H0v9z" fill="#1565C0" shape-rendering="crispEdges"/><path d="M8.39 4.53l-1.52.7.8 1.48-1.65-.32-.2 1.66-1.15-1.22-1.15 1.22L3.3 6.4l-1.65.32.8-1.47-1.52-.71 1.53-.72-.81-1.46 1.65.31L3.5 1l1.16 1.22L5.82 1l.2 1.66 1.66-.31-.81 1.46 1.52.72z" fill="#F8F9FD"/><path d="M7.15 4.53a2.48 2.48 0 1 1-4.97 0 2.48 2.48 0 0 1 4.97 0zm-3.72 0a1.24 1.24 0 1 0 2.48 0 1.24 1.24 0 0 0-2.48 0z" fill="#1565C0"/></svg>