<!-- by TradingView --><svg width="18" height="18" xmlns="http://www.w3.org/2000/svg"><path d="M0 18h18V0H0v18z" fill="#F8F9FD" shape-rendering="crispEdges"/><path d="M18 5V3H3l2 2h13zM3 15h15v-2H5.5L3 15z" fill="#FDD835" shape-rendering="crispEdges"/><path d="M18 8H8l1 1-1 1h10V8z" fill="#2A2E39" shape-rendering="crispEdges"/><path d="M0 0l2.992 3H18V0H0z" fill="#4CAF50" shape-rendering="crispEdges"/><path d="M8 8h10V5H5l3 3zM6 13h12.5v-3h-10L6 13z" fill="#EF5350" shape-rendering="crispEdges"/><path d="M0 18h18v-3H3l-3 3z" fill="#4CAF50" shape-rendering="crispEdges"/><path d="M1 0H0l9 9-9 9h1l9-9-9-9z" fill="#2A2E39" shape-rendering="crispEdges"/><path d="M3.5 6.545l.59 1.91H6l-1.545 1.18.59 1.91-1.545-1.18-1.545 1.18.59-1.91L1 8.455h1.91l.59-1.91z" fill="#EF5350"/></svg>