<svg width="1920" height="1006" viewBox="0 0 1920 1006" fill="none" xmlns="http://www.w3.org/2000/svg">
<path d="M0 0C0 386.28 0 1005 0 1005H1918.54V0C1169.87 0 2.91146 0 2.91146 0M2.91146 670H1920M2.91146 335H1920M2.91146 837.5H1920M2.91146 502.5H1920M2.91146 167.5H1920M2.91146 921.25H1920M2.91146 586.25H1920M2.91146 251.25H1920M2.91146 753.75H1920M2.91146 418.75H1920M2.91146 83.7499H1920M1278.06 1005V0M637.574 1005V0M1598.3 1005V0M957.816 1005L957.817 0M317.331 1005V0M1758.42 1005V0M1117.94 1005V0M477.453 1005V0M1438.18 1005V0M797.695 1005L797.695 0M157.21 1005V0" stroke="url(#paint0_linear_4_150)"/>
<defs>
<linearGradient id="paint0_linear_4_150" x1="355" y1="-107" x2="297.5" y2="1163.5" gradientUnits="userSpaceOnUse">
<stop stop-color="#293D8A"/>
<stop offset="0.938228" stop-color="#131C3D" stop-opacity="0"/>
</linearGradient>
</defs>
</svg>
