<!-- by TradingView --><svg width="18" height="18" viewBox="0 0 18 18" xmlns="http://www.w3.org/2000/svg"><path d="M0 0h18v9H0V0z" fill="#EF5350" shape-rendering="crispEdges"/><path d="M0 9h18v9H0V9z" fill="#2A2E39" shape-rendering="crispEdges"/><path d="M6 11l-.5.5c1.3 1 2.8 1.52 4.22.68 1.42-.83 2.2-2.76 1.74-3.97C11 7 9.7 5.53 8.05 5.37L8 6s3.28 1.5 2.5 3.5c-.78 2-2.17 3.01-4.5 1.5z" fill="#FDD835"/><path d="M8.72 8.52L8 8l-.71.5.28-.76-.71-.52h.86L8 6.47l.27.76h.89l-.69.51.25.78zM12 13.14L6.84 10.2c-.3-.17-.49-.46-.54-.78-.04-.32.06-.64.29-.88 0-.08.1-.06.12 0 .05.27.2.52.4.72 1.57.95 4.89 2.87 5.39 2.87s-.5 1-.5 1z" fill="#FDD835"/></svg>