<!-- by TradingView --><svg width="18" height="18" viewBox="0 0 18 18" xmlns="http://www.w3.org/2000/svg"><path d="M0 12h18v6H0v-6z" fill="#2A2E39" shape-rendering="crispEdges"/><path d="M0 6h18v6H0V6z" fill="#F8F9FD" shape-rendering="crispEdges"/><path d="M12.5 8.25H9.87c0-.41-.39-.75-.87-.75s-.88.34-.88.75H5.5c0 .41.42.75.9.75h-.03c0 .41.4.75.88.75 0 .41.4.75.88.75h1.74c.49 0 .88-.34.88-.75.48 0 .88-.34.88-.75h-.03c.48 0 .9-.34.9-.75z" fill="#FF9800"/><path d="M0 0h18v6H0V0z" fill="#EF5350" shape-rendering="crispEdges"/></svg>