<!-- by TradingView --><svg width="18" height="18" viewBox="0 0 18 18" xmlns="http://www.w3.org/2000/svg"><path d="M0 17.6h18V.1H0v17.5z" fill="#FDD835" shape-rendering="crispEdges"/><path d="M0 18h18v-6H0v6z" fill="#EF5350" shape-rendering="crispEdges"/><path d="M0 6h18V0H0v6z" fill="#4CAF50" shape-rendering="crispEdges"/><path d="M9 13a4 4 0 1 0 0-8 4 4 0 0 0 0 8z" fill="#1565C0"/><path d="M9 6l.7 2.29H12L10.14 9.7l.72 2.3L9 10.58 7.14 12l.71-2.3L6 8.3h2.3L9 6z" fill="#FDD835"/><path d="M12 9.42L9.61 8.6l1.48-2.13-.61-.47L9 8.13 7.52 6l-.6.47L8.38 8.6 6 9.42l.23.76 2.4-.82V12h.75V9.36l2.39.82.23-.76z" fill="#FDD835"/></svg>