<!-- by TradingView --><svg width="18" height="18" viewBox="0 0 18 18" xmlns="http://www.w3.org/2000/svg"><path d="M0 2h18V0H0v2z" fill="#1565C0" shape-rendering="crispEdges"/><path d="M0 4h18V2H0v2z" fill="#F8F9FD" shape-rendering="crispEdges"/><path d="M0 6h18V4H0v2z" fill="#1565C0" shape-rendering="crispEdges"/><path d="M0 8h18V6H0v2z" fill="#F8F9FD" shape-rendering="crispEdges"/><path d="M0 10h18V8H0v2z" fill="#1565C0" shape-rendering="crispEdges"/><path d="M0 12h18v-2H0v2z" fill="#F8F9FD" shape-rendering="crispEdges"/><path d="M0 14h18v-2H0v2z" fill="#1565C0" shape-rendering="crispEdges"/><path d="M0 16h18v-2H0v2z" fill="#F8F9FD" shape-rendering="crispEdges"/><path d="M0 10h10V0H0v10zm0 8h18v-2H0v2z" fill="#1565C0" shape-rendering="crispEdges"/><path d="M6 10H4V6H0V4h4V0h2v4h4v2H6v4z" fill="#F8F9FD" shape-rendering="crispEdges"/></svg>