<!-- by TradingView --><svg width="18" height="18" viewBox="0 0 18 18" xmlns="http://www.w3.org/2000/svg"><path d="M0 0h18v18H0V0z" fill="#F8F9FD" shape-rendering="crispEdges"/><path d="M0 0h18v12H0V0z" fill="#1565C0" shape-rendering="crispEdges"/><path d="M0 0h18v6H0V0z" fill="#EF5350" shape-rendering="crispEdges"/><path d="M3 5.57v4.58c0 2.62 3.5 3.42 3.5 3.42s3.5-.8 3.5-3.42V5.57H3z" fill="#EF5350"/><path d="M4.5 6.5h4V4.83l-.8.42L6.5 4 5.3 5.25l-.8-.42V6.5zM9 10.64L6.5 8 4 10.64l.82.86L6.5 9.72l1.68 1.78.82-.86z" fill="#FDD835"/><path d="M9 8.15H7.83c.07-.1.1-.24.1-.38A.77.77 0 0 0 6.5 7.4a.77.77 0 1 0-1.34.74H4c0 .43.37.77.8.77h-.03c0 .43.34.77.77.77 0 .38.27.7.63.76l-.61 1.37a2.5 2.5 0 0 0 1.88 0l-.6-1.37a.77.77 0 0 0 .62-.76c.43 0 .77-.34.77-.77h-.02A.8.8 0 0 0 9 8.15z" fill="#F8F9FD"/></svg>