<!-- by TradingView --><svg width="18" height="18" viewBox="0 0 18 18" xmlns="http://www.w3.org/2000/svg"><path d="M0 18h18V0H0v18z" fill="#4CAF50"/><path d="M4.79 10.7c0 .65.53 1.17 1.17 1.17H9.5c0 .54.43.98.97.98h1.18c.54 0 .98-.44.98-.98V10.7H4.79zM12.71 5.02v2.74c0 .44-.35.79-.78.79v1.17c1.08 0 1.96-.88 1.96-1.96V5.02H12.7zM4.3 7.76c0 .44-.35.79-.78.79v1.17c1.08 0 1.95-.88 1.95-1.96V5.02H4.3v2.74z" fill="#F8F9FD"/><path fill="#F8F9FD" d="M10.95 5.02h1.17v2.74h-1.17zM9.2 6.59a.2.2 0 0 1-.4 0V5.02H7.63V6.6a.2.2 0 0 1-.4 0V5.02H6.07V6.6a1.37 1.37 0 0 0 2.15 1.12 1.36 1.36 0 0 0 .96.24c-.08.34-.4.6-.76.6v1.17c1.08 0 1.96-.88 1.96-1.96V5.02H9.19V6.6z"/></svg>