<!-- by TradingView --><svg width="18" height="18" viewBox="0 0 18 18" xmlns="http://www.w3.org/2000/svg"><path d="M18 0v18H0V0h18z" fill="#F8F9FD" shape-rendering="crispEdges"/><path d="M0 0h18v9H0V0z" fill="#EF5350" shape-rendering="crispEdges"/><path d="M4.6 5.29C4.87 6.49 5.87 7.23 7 7.5c-1.6.57-3.43-.14-3.97-1.83A3.26 3.26 0 0 1 7 1.51a3.25 3.25 0 0 0-2.4 3.78z" fill="#F8F9FD"/><path d="M7.54 2.84l-.46-.35h.57l.17-.57.18.57h.57l-.46.35.18.57-.47-.35-.47.35.19-.57zm1.64 1.29l-.46-.35h.52l.17-.57.23.56h.55l-.46.35.2.57-.46-.34L9 4.7l.17-.57zm-.62 2l-.45-.42h.56l.17-.57.18.57h.57l-.45.35.17.57-.47-.35-.45.35.17-.5zm-2.07 0l-.46-.4h.56l.17-.57.19.56h.57l-.46.35.17.57-.46-.34-.46.35.18-.52zm-.63-2l-.45-.35h.56l.17-.58.18.57h.57l-.49.35.2.57-.46-.35-.45.35.17-.56z" fill="#F8F9FD"/></svg>