<!-- by TradingView --><svg width="18" height="18" viewBox="0 0 18 18" xmlns="http://www.w3.org/2000/svg"><path d="M0 12h18v6H0v-6z" fill="#EF5350" shape-rendering="crispEdges"/><path d="M0 6h18v6H0V6z" fill="#1565C0" shape-rendering="crispEdges"/><path d="M0 0h18v6H0V0z" fill="#F8F9FD" shape-rendering="crispEdges"/><path d="M5.94 13.08A6.01 6.01 0 0 1 3 7.9V4h9v3.91a6 6 0 0 1-2.95 5.17L7.5 14l-1.55-.92z" fill="#F8F9FD" shape-rendering="crispEdges"/><path d="M4.5 10.08C4.17 9.37 4 8.59 4 7.8V4h7v3.8a5.4 5.4 0 0 1-2.48 4.54L7.5 13h.05l-1.05-.66a5.35 5.35 0 0 1-2-2.26z" fill="#EF5350"/><path d="M7 5h1v1h1v1H8v1h2v1H8v2H7V9H5V8h2V7H6V6h1V5z" fill="#F8F9FD"/><path d="M7.53 12.99L7.5 13l.02-.01zM10 10.93a5.4 5.4 0 0 1-1.48 1.41l-1 .65-1.02-.65A5.35 5.35 0 0 1 5 10.93v-.5l1.25.46L7.5 10l1.25.9 1.25-.47v.5z" fill="#1565C0"/></svg>