<!-- by TradingView --><svg width="18" height="18" viewBox="0 0 18 18" xmlns="http://www.w3.org/2000/svg"><path d="M0 0h18v18H0V0z" fill="#FDD835" shape-rendering="crispEdges"/><path d="M18 0H0v7.4l9-5.62 9 5.62V0zM18 10.6l-8.92 5.62-.04-.03L0 10.6V18h18v-7.4z" fill="#4CAF50" shape-rendering="crispEdges"/><path d="M13 8.99A4 4 0 1 1 5 9 4 4 0 0 1 13 9z" fill="#1565C0"/><path d="M8.6 8.83A7.5 7.5 0 0 0 5 8.61c.12-.96.28-1.07.28-1.07 1-.13 2.32-.06 3.61.33a7.36 7.36 0 0 1 3.83 2.61s-.23.64-.56.96a6.26 6.26 0 0 0-3.56-2.6z" fill="#fff"/></svg>