<!-- by TradingView --><svg width="18" height="18" viewBox="0 0 18 18" xmlns="http://www.w3.org/2000/svg"><path d="M0 0h18v18H0V0z" fill="#F8F9FD" shape-rendering="crispEdges"/><path d="M0 0h18v5H0V0z" fill="#2A2E39" shape-rendering="crispEdges"/><path d="M0 13h18v5H0v-5z" fill="#4CAF50" shape-rendering="crispEdges"/><path d="M12 3.5L10.86 3 9 7.06 7.14 3 6 3.5l2.3 5-2.3 5 1.14.5L9 9.94 10.86 14l1.14-.5-2.3-5 2.3-5z" fill="#F8F9FD"/><path d="M7 6H0v6h7c.33.9 1.32 2 2 2 .68 0 1.66-1.1 2-2h7V6h-7c-.34-.9-1.33-2-2-2-.67 0-1.66 1.1-2 2z" fill="#EF5350" shape-rendering="crispEdges"/><path fill="#F8F9FD" d="M8.5 5h1v8h-1z"/><path d="M7 6v6a5.6 5.6 0 0 1-1-3c0-1.1.44-2.13 1-3zM11 6v6c.56-.87 1-1.9 1-3a5.6 5.6 0 0 0-1-3z" fill="#2A2E39"/></svg>