<!-- by TradingView --><svg width="18" height="18" viewBox="0 0 18 18" xmlns="http://www.w3.org/2000/svg"><path d="M0 0h18v18H0V0z" fill="#FDD835" shape-rendering="crispEdges"/><path d="M3 9V0h3v18H3V9z" fill="#FF9800" shape-rendering="crispEdges"/><path d="M0 0h3v18H0V0z" fill="#4CAF50" shape-rendering="crispEdges"/><path d="M7 0h11v18H7V0z" fill="#D32F2F" shape-rendering="crispEdges"/><path d="M18 12h-3l-.52.5V14H13v-1h.5v-1.28H10v.78h-.5v-2L9 9.96V4.87L10 4v7h2l.5-.5-.5-.54V8.5h-1v-2h2.5l.5-1 .48 1V9H18v3z" fill="#FDD835"/></svg>