<!-- by TradingView --><svg width="18" height="18" viewBox="0 0 18 18" xmlns="http://www.w3.org/2000/svg"><path d="M13 0h5v18h-5V0z" fill="#EF5350" shape-rendering="crispEdges"/><path d="M5 0h8v18H5V0z" fill="#F8F9FD" shape-rendering="crispEdges"/><path d="M12 7.75H9.75a.75.75 0 0 0-1.5 0H6c0 .41.36.75.77.75h-.02c0 .41.34.75.75.75 0 .41.34.75.75.75h1.5c.41 0 .75-.34.75-.75.41 0 .75-.34.75-.75h-.03c.42 0 .78-.34.78-.75z" fill="#FF9800"/><path d="M0 0h5v18H0V0z" fill="#4CAF50" shape-rendering="crispEdges"/></svg>