<!-- by TradingView --><svg width="18" height="18" viewBox="0 0 18 18" xmlns="http://www.w3.org/2000/svg"><path d="M0 18h18V0H0v18z" fill="#EF5350"/><path fill-rule="evenodd" d="M14 9.05C14 11.8 11.8 14 8.95 14A4.88 4.88 0 0 1 4 8.95C4 6.2 6.2 4 8.95 4c2.74 0 4.94 2.3 5.05 5.05zm-5.05 3.3a3.24 3.24 0 0 1-3.3-3.3c0-1.86 1.43-3.3 3.3-3.3.43 0 .87.12 1.31.34A2.95 2.95 0 0 0 7.3 9.05c0 .88.44 2.64 3.07 2.97-.44.22-.99.33-1.42.33zm1.42-2.42l1.54.55-.88-1.43 1-1.31-1.55.44-.88-1.32-.1 1.65-1.54.44 1.53.65-.1 1.54.98-1.2z" fill="#F8F9FD"/></svg>