<!-- by TradingView --><svg width="18" height="18" viewBox="0 0 18 18" xmlns="http://www.w3.org/2000/svg"><path d="M0 15h18v-3H0v3z" fill="#FDD835" shape-rendering="crispEdges"/><path d="M0 12h18V9H0v3z" fill="#2A2E39" shape-rendering="crispEdges"/><path d="M0 9h18V6H0v3z" fill="#EF5350" shape-rendering="crispEdges"/><path d="M0 6h18V3H0v3z" fill="#FDD835" shape-rendering="crispEdges"/><path d="M0 3h18V0H0v3z" fill="#2A2E39" shape-rendering="crispEdges"/><path d="M0 18h18v-3H0v3z" fill="#EF5350" shape-rendering="crispEdges"/><path d="M12 9a3 3 0 1 1-6 0 3 3 0 0 1 6 0z" fill="#F8F9FD" shape-rendering="crispEdges"/><path d="M10 9l-1-.32s.49-.62.5-.68c.01-.04-.23-1-.5-1s-.82.32-1 .5l-.28.72h.76s-.3.4-.48.78c-.17.39-.4.82 0 1l1 .57V11l-.5.5h1v-.93l.5-.07 1-.5c.18-.4-.6-.82-1-1z" fill="#2A2E39"/></svg>