<!-- by TradingView --><svg width="18" height="18" viewBox="0 0 18 18" xmlns="http://www.w3.org/2000/svg"><path d="M0 18h18V0H0v18z" fill="#4CAF50" shape-rendering="crispEdges"/><path d="M15 20h3V9h-3v11z" fill="#FF9800" shape-rendering="crispEdges"/><path d="M12 20h3V9h-3v11z" fill="#2A2E39" shape-rendering="crispEdges"/><path d="M9 20h3V9H9v11z" fill="#EF5350" shape-rendering="crispEdges"/><path d="M16.5 5.75h-2.25a.75.75 0 0 0-1.5 0H10.5c0 .41.36.75.78.75h-.03c0 .41.34.75.75.75 0 .41.34.75.75.75h1.5c.41 0 .75-.34.75-.75.41 0 .75-.34.75-.75h-.03c.42 0 .78-.34.78-.75z" fill="#FF9800"/></svg>