<?xml version="1.0" encoding="utf-8"?>
<!-- Generator: Adobe Illustrator 26.1.0, SVG Export Plug-In . SVG Version: 6.00 Build 0)  -->
<svg version="1.1" id="Слой_1" xmlns="http://www.w3.org/2000/svg" xmlns:xlink="http://www.w3.org/1999/xlink" x="0px" y="0px"
	 viewBox="0 0 976 425" style="enable-background:new 0 0 976 425;" xml:space="preserve">
<style type="text/css">
	.st0{fill-rule:evenodd;clip-rule:evenodd;fill:#F5F5F5;}
</style>
<path class="st0" d="M352.8,388.7c1.7-0.1,3-1.6,2.9-3.3c-1.5-22.1,9.6-70.2,66-84.5c30.4-7.7,48.3-29.1,58.3-52.2
	s12.2-48.3,11.2-64.5c-0.1-1.7-1.6-3-3.3-2.9c-1.7,0.1-3,1.6-2.9,3.3c0.9,15.5-1.2,39.7-10.7,61.7s-26.1,41.6-54.1,48.7
	c-60.3,15.3-72.3,66.9-70.7,90.9C349.7,387.5,351.1,388.8,352.8,388.7z"/>
<path class="st0" d="M488.2,423.8c1.7,0,3.1-1.4,3.1-3.1V3.5c0-1.7-1.4-3.1-3.1-3.1s-3.1,1.4-3.1,3.1v417.3
	C485.1,422.5,486.5,423.8,488.2,423.8z"/>
<path class="st0" d="M623.5,425c1.7-0.3,2.8-1.9,2.6-3.5c-3-18.8-21.3-59.3-70.9-74c-23.1-6.8-38.5-23.2-48.4-41.3
	c-9.9-18.1-14.2-37.6-15.1-49.9c-0.1-1.7-1.6-3-3.3-2.9c-1.7,0.1-3,1.6-2.9,3.3c0.9,13.1,5.4,33.4,15.8,52.4s27,36.8,52.1,44.2
	c46.8,13.8,63.9,52,66.6,69C620.2,424.1,621.8,425.2,623.5,425z"/>
<path class="st0" d="M559.1,148.3c-40.5-40-61.3-101.3-67.9-145.7c-0.2-1.7-1.8-2.9-3.5-2.6s-2.9,1.8-2.6,3.5
	c6.7,45.1,27.8,107.9,69.6,149.2c21,20.7,47.2,36,79.5,40.9c32.2,4.9,70.1-0.7,114.4-21.2h0.1h0.1c113.4-59.3,196.3-49,222.9-37
	c1.6,0.7,3.4,0,4.1-1.5c0.7-1.6,0-3.4-1.5-4.1c-28.8-13-113.6-22.8-228.2,37.1c-43.4,20.2-80.1,25.4-110.8,20.7
	C604.4,182.9,579.3,168.3,559.1,148.3z"/>
<path class="st0" d="M597.2,181.6c1.7,0,3.1-1.4,3-3.2c-0.2-8.5,3.1-22,13.6-33.8s28.4-22.2,58.1-24.5
	c61.6-4.7,96.9-37.9,107.1-54.4c0.9-1.5,0.4-3.4-1-4.3c-1.5-0.9-3.4-0.4-4.2,1c-9.1,14.9-42.7,46.9-102.3,51.5
	c-30.9,2.4-50.5,13.4-62.2,26.5s-15.4,28-15.2,38.1C594.1,180.3,595.5,181.6,597.2,181.6z"/>
<path class="st0" d="M929.7,262.1c1.1-1.3,1-3.2-0.3-4.4c-0.9-0.8-1.8-1.6-2.7-2.4c-5.5-5-12.4-11.2-22.8-15.7
	c-12.2-5.2-29.1-7.8-54.2-3.9c-31.8,5-53.1-5.4-68-20.3c-15-15-23.4-34.7-28.7-48.5c-0.6-1.6-2.4-2.4-4-1.8c-1.6,0.6-2.4,2.4-1.8,4
	c5.4,13.8,14.1,34.6,30.1,50.6c16.1,16.2,39.4,27.3,73.3,22c24.3-3.8,39.9-1.2,50.8,3.5c9.3,4,15.5,9.5,21,14.5c1,0.9,2,1.8,2.9,2.6
	C926.6,263.5,928.5,263.3,929.7,262.1z"/>
<path class="st0" d="M719.7,370.9c0.6-1.6-0.2-3.4-1.7-4c-16.6-6.6-48.1-32.3-38.3-82.7c10.6-54.1-25.5-86.8-44.9-96.5
	c-1.5-0.8-3.4-0.1-4.1,1.4c-0.8,1.5-0.1,3.4,1.4,4.1c17.9,8.9,51.4,39.4,41.6,89.8c-10.6,54.1,23.4,82.3,42.1,89.6
	C717.3,373.3,719.1,372.5,719.7,370.9z"/>
<path class="st0" d="M416.9,149.9c40.5-40,61.3-101.3,67.9-145.7c0.2-1.7,1.8-2.9,3.5-2.6s2.9,1.8,2.6,3.5
	c-6.7,45.1-27.8,107.9-69.6,149.2c-21,20.7-47.2,36-79.5,40.9c-32.2,4.9-70.1-0.6-114.4-21.2h-0.1h-0.1
	C113.8,114.7,30.9,125,4.3,137c-1.6,0.7-3.4,0-4.1-1.5s0-3.4,1.5-4.1c28.8-13,113.6-22.8,228.2,37.1c43.4,20.2,80.1,25.4,110.8,20.7
	C371.6,184.4,396.7,169.8,416.9,149.9z"/>
<path class="st0" d="M378.8,183.1c-1.7,0-3.1-1.4-3-3.2c0.2-8.5-3.1-22-13.6-33.8s-28.4-22.2-58.1-24.5
	C242.6,117,207.2,83.8,197,67.3c-0.9-1.5-0.4-3.4,1-4.3c1.5-0.9,3.4-0.4,4.2,1c9.1,14.9,42.7,46.9,102.3,51.5
	c30.9,2.4,50.5,13.4,62.2,26.5s15.4,28,15.2,38.1C381.9,181.8,380.5,183.2,378.8,183.1z"/>
<path class="st0" d="M46.3,263.6c-1.1-1.3-1-3.2,0.3-4.4c0.9-0.8,1.8-1.6,2.7-2.4c5.5-5,12.4-11.2,22.8-15.7
	c12.2-5.2,29.1-7.8,54.2-3.9c31.8,5,53.1-5.4,68-20.3c15-15,23.4-34.7,28.7-48.5c0.6-1.6,2.4-2.4,4-1.8c1.6,0.6,2.4,2.4,1.8,4
	c-5.4,13.8-14.1,34.6-30.1,50.6c-16.1,16.2-39.4,27.3-73.3,22c-24.3-3.8-39.9-1.2-50.8,3.5c-9.3,4-15.5,9.5-21,14.5
	c-1,0.9-2,1.8-2.9,2.6C49.4,265,47.5,264.9,46.3,263.6z"/>
<path class="st0" d="M256.3,372.4c-0.6-1.6,0.2-3.4,1.7-4c16.6-6.6,48.1-32.3,38.3-82.7c-10.6-54.1,25.5-86.8,44.9-96.5
	c1.5-0.8,3.4-0.1,4.1,1.4c0.8,1.5,0.1,3.4-1.4,4.1c-17.9,8.9-51.4,39.4-41.6,89.8c10.6,54.1-23.4,82.3-42.1,89.6
	C258.7,374.8,256.9,374,256.3,372.4z"/>
<path class="st0" d="M600,378.1c-0.3-1.7-3.4-3-2.8-3.7c6.6-6.8,22.5-33.8,18.7-85.6c-4.2-55.7,10.2-89.5,17.8-99.5
	c0.6-0.8,1.4-0.2,1.6,1.5c0.3,1.5,2.2,4.4,1.5,5.1c-7.1,9.1-18.1,41.9-14.1,93.7c4.2,55.7-13.8,82.7-21.2,90.2
	C601,380.6,600.2,379.8,600,378.1z"/>
</svg>
