<?xml version="1.0" encoding="utf-8"?>
<!-- Generator: Adobe Illustrator 26.1.0, SVG Export Plug-In . SVG Version: 6.00 Build 0)  -->
<svg version="1.1" id="Слой_1" xmlns="http://www.w3.org/2000/svg" xmlns:xlink="http://www.w3.org/1999/xlink" x="0px" y="0px"
	 viewBox="0 0 624 304" style="enable-background:new 0 0 624 304;" xml:space="preserve">
<style type="text/css">
	.st0{fill:#FFFFFF;}
</style>
<g id="WIRE-2">
	<g id="tree-lines" transform="translate(-549.000000, -3151.000000)">
		<g id="Latest-research-deve" transform="translate(283.000000, 2446.000000)">
			<g id="Fichier-2" transform="translate(266.000000, 705.000000)">
				<g id="Group-2">
					<path id="Path" class="st0" d="M313,302.2V1.8c0-1.1-0.6-1.8-1.5-1.8S310,0.7,310,1.8v300.4c0,1.1,0.6,1.8,1.5,1.8
						S313,302.9,313,302.2L313,302.2z"/>
					<path id="Path_00000124149863200604487400000015410861746742507660_" class="st0" d="M313,298.4
						c-3.6-47.8-29.5-94.9-76.2-113.3c-22.2-9.1-46.6-9.4-68.9-0.7c-25.1,9.8-46.3,26.4-72.5,34.4c-30.6,9.1-18.3,4.1-40.4,12
						c-2.7,1.3-1.5,4.6,0.9,4.1c20.4-6.6,6.4-2.4,29.1-8.8c22.2-5,37-14.1,59.6-26.4s46.3-21.4,72.5-16.3
						c23.7,4.7,45.2,17.4,60.9,36.2c18.2,22.5,29.2,50.7,31.3,78.9C309.4,300.5,313,300.5,313,298.4L313,298.4z"/>
					<path id="Path_00000014619723381172072970000003392271855632810373_" class="st0" d="M222.3,181.1
						c-29.7-14.2-24.3-57.4-33.7-83.5c-10.5-28-37.4-41-64.5-47.6c-2.2-0.4-2.9,2.9-0.7,3.3c14.5,2.9,27.9,8.7,40.3,16.7
						c14.1,10.2,21.8,24.7,25.4,41.4c5.4,24.7,5.1,59.9,31.5,72.6C221.9,184,224.1,182.2,222.3,181.1L222.3,181.1z"/>
					<path id="Path_00000091712626210374439760000004747799549757325443_" class="st0" d="M144.6,195.2
						c-13.1-14.8-28.8-32.2-47.5-40.2c-8.8-3.3-17.5-5.4-27-5.8c-11.3-0.7-22.6-1.4-32.5-8c-1.8-1.1-3.7,1.8-1.8,2.9
						c16.8,11.2,38.3,5.8,56.6,12.7c19.7,7.2,35.8,25.3,49.7,40.6C143.5,199.2,146,196.6,144.6,195.2z"/>
					<path id="Path_00000017518618133213873810000008700502063270281143_" class="st0" d="M313,175.8c-1.8-12-6.5-23.6-13.8-33.1
						c-6.5-8-14.8-14.2-21-22.5c-8.3-11.6-11.9-25.4-15.6-39.2c-3.3-13.4-7.2-26.9-11.9-40c-5.1-12.7-11.9-24.7-23.2-32.7
						c-1.8-1.5-3.6,1.8-1.8,2.9c22.1,15.3,27.5,46.5,33.7,70.8c3.3,12.7,6.5,25.4,13.8,36.3c5.4,7.6,11.9,14.9,18.8,21.1
						c9.8,10.2,15.9,22.9,18.1,37c0.4,2.2,3.3,1.8,2.9-0.4V175.8z"/>
					<path id="Path_00000144314102843253552440000010948626704239305644_" class="st0" d="M313.3,299.4c5.4-49.4,34.9-99.8,85.4-114
						c25.4-7.3,49.4-2.2,72.3,9.8c22.9,12,43.2,24.7,68.3,30.1c28,5.8,56.7,4.4,83.5-5.1c2.2-0.7,1.1-4-0.7-3.3
						c-26.9,9.4-55.9,10.9-83.5,4.7c-13.8-3.3-27.2-8.3-40-15.2c-11.3-6.2-22.5-13.1-34.1-18.2c-21.1-10.2-45.4-12-67.9-5.4
						c-22.5,6.5-42.1,20.3-55.9,39.2c-16,22.5-29.1,49.7-30.5,77.3C309.7,301.5,313.3,301.5,313.3,299.4L313.3,299.4z"/>
					<path id="Path_00000132090566635885941240000013692501751986830736_" class="st0" d="M403.8,183.8c26.4-12.8,26-47.8,31.5-72.6
						c3.6-16.4,10.8-31,24.6-41.2c12.3-8.4,26-14.2,40.9-17.5c2.2-0.4,1.4-4-0.7-3.3c-27.1,6.6-54.2,19.7-64.4,47.8
						c-9.8,26.3-4,69.7-33.6,83.9C399.8,181.9,401.6,184.9,403.8,183.8L403.8,183.8z"/>
					<path id="Path_00000091724042950160128920000007215276941308208829_" class="st0" d="M482.1,196.1
						c13.4-15.2,28.3-31.9,47.9-39.1c18.2-6.9,39.9-1.4,56.3-12.7c1.8-1.1,0-4.3-1.8-2.9c-9.4,6.5-20.3,7.2-31.2,8
						c-9.4,0.4-18.9,2.2-27.6,5.8c-18.5,8-33.8,25-47.2,39.9c-1.5,1.8,1.1,4,2.5,2.5L482.1,196.1z"/>
					<path id="Path_00000058552808413837703560000012874424699604365454_" class="st0" d="M313.7,122.9c3.3-8.8,8-16.8,13.9-23.7
						c7.3-9.1,15-17.5,23.4-25.2c15-14.6,31.1-28.1,48.3-39.8c1.8-1.1,0-4.4-1.8-2.9c-17.9,12.4-34.7,26.3-50.1,41.2
						c-8.4,8-16.1,16.4-23.4,25.5c-5.9,7.3-10.6,15.3-13.9,24.1C309.7,124,313,124.8,313.7,122.9L313.7,122.9z"/>
					<path id="Path_00000112628800326300962920000012751932773956174488_" class="st0" d="M241.7,192.5c-0.4,14-1.1,29.5-10.5,41
						c-9.4,11.5-23.9,16.5-37.3,20.5c-10.9,2.9-21,7.6-30,13.7c-8.7,5.8-16.3,12.9-21.7,21.9c-0.4,0.7-0.4,1.8,0.7,2.2
						c0.7,0.4,1.8,0.4,2.2-0.7c5.8-10.4,16.6-18.3,26.8-24.5c11.2-6.8,23.9-9,35.8-13.7s23.5-11.1,29.7-22.3
						c6.5-11.1,7.2-25.2,7.6-37.8c0-1.1-0.7-1.8-1.8-1.8s-1.8-0.4-1.8,0.4L241.7,192.5z"/>
					<path id="Path_00000094589807777256626920000010434232913999744415_" class="st0" d="M379,191.7c0.4,13,0.7,26.7,7.7,37.9
						c6.6,11.2,18.3,17.7,30,22.4c11.7,4.7,24.8,7.2,36.2,13.7c10.2,6.1,21.2,14.1,27,24.6c1.1,1.8,4,0,2.9-1.8
						c-5.5-8.7-13.1-16.2-22.3-22c-9.1-6.1-19.7-10.5-30.3-13.4c-13.5-4.3-28.1-9.7-37.3-20.6c-9.1-10.8-10.2-27.1-10.6-41.2
						C382.3,189.5,378.7,189.5,379,191.7L379,191.7z"/>
				</g>
			</g>
		</g>
	</g>
</g>
</svg>
