<svg width="564" height="90" viewBox="0 0 564 90" fill="none" xmlns="http://www.w3.org/2000/svg">
<path d="M67.0759 41.7658C66.8087 49.7304 65.749 51.3288 61.1474 51.3288V61.3476H62.8658C74.3413 61.3476 77.1003 55.5761 77.5204 42.7507L77.9882 28.5595H88.7479V61.3476H99.9752V18.6152H67.8492L67.0759 41.7658Z" fill="white"/>
<path d="M126.88 31.5985H118.774V18.6152H107.547V61.3476H127.042C139.281 61.3476 143.654 53.6058 143.654 46.3198C143.644 36.905 137.563 31.5985 126.88 31.5985ZM126.021 51.9329H118.765V41.0782H126.021C129.916 41.0782 132.255 42.7507 132.255 46.3198C132.265 50.1952 130.002 51.9329 126.021 51.9329Z" fill="white"/>
<path d="M180.2 17.63V1.76572H168.973V17.63C156.104 18.6895 147.454 27.5742 147.454 39.9442C147.454 52.3883 156.113 61.2731 168.973 62.3326V78.4199H180.2V62.3326C193.07 61.3472 201.719 52.3883 201.719 39.9442C201.719 27.4999 193.06 18.6151 180.2 17.63ZM168.973 52.0164C162.739 51.1801 158.834 46.6261 158.834 39.9442C158.834 33.2619 162.729 28.7081 168.973 27.8716V52.0164ZM180.2 52.0164V27.8809C186.435 28.7173 190.339 33.2712 190.339 39.9535C190.339 46.6261 186.435 51.1801 180.2 52.0164Z" fill="white"/>
<path d="M243.974 48.2155V33.8662C243.974 23.3923 237.11 16.7845 225.577 16.7845C213.643 16.7845 207.333 23.764 206.788 31.0503H218.168C218.56 29.4517 220.278 26.7194 225.577 26.7194C229.94 26.7194 232.747 28.6897 232.747 33.8569H221.596C211.619 33.8569 205.69 38.9405 205.69 47.4444C205.69 56.3288 212.173 62.3977 221.519 62.3977C228.374 62.3977 232.174 59.2474 233.835 56.8588C235.315 59.7398 238.589 61.3382 242.876 61.3382H246.771V51.4685C244.747 51.4778 243.974 50.567 243.974 48.2155ZM232.737 45.409C232.737 50.3438 229.147 53.1504 224.469 53.1504C220.412 53.1504 217.214 51.71 217.214 47.4534C217.214 43.2806 220.717 42.593 223.763 42.593H232.727V45.409H232.737Z" fill="white"/>
<path d="M41.0039 9.94435C39.2949 4.97221 37.3187 1.05029 30.5595 1.05029C23.8002 1.05029 21.6999 4.96292 19.8955 9.94435C1.31696 61.3476 1.31693 61.3476 1.31693 61.3476H13.6326L17.9192 49.1263H41.6243L45.6055 61.3476H58.7041C58.7041 61.3476 58.7041 61.3476 41.0039 9.94435ZM21.5089 38.8105L29.9293 14.4425H30.2444L38.1973 38.8105H21.5089Z" fill="white"/>
<path d="M60.0223 77.8622H0V90H60.0223V77.8622Z" fill="white"/>
<path d="M507.184 38.9592L526.136 18.6152H512.025L496.504 35.539V18.6152H485.275V61.3476H496.504V43.3642L513.114 61.3476H527.615L507.184 38.9592Z" fill="white"/>
<path d="M459.909 62.6116C446.952 62.6116 438.257 53.4571 438.257 39.8236C438.257 26.199 446.619 17.0354 459.067 17.0354C471.612 17.0354 479.718 25.948 479.718 39.7397V42.0725H450.133C450.658 48.541 454.371 52.528 459.909 52.528C465.636 52.528 467.918 48.4387 467.918 48.4387C467.918 48.4387 476.425 48.4387 479.317 48.4387C478.648 53.8103 473.724 62.6116 459.909 62.6116ZM467.69 34.3681C467.09 31.0317 464.996 26.3755 459.067 26.3755C453.951 26.3755 451.182 29.6469 450.275 34.3681H467.69Z" fill="white"/>
<path d="M544.781 62.6116C532.629 62.6116 524.017 52.8253 524.017 39.6191C524.017 26.4128 532.6 17.0169 544.698 17.0169C559.495 17.0169 563.534 27.872 563.982 32.0541L564 32.2399H552.937L552.886 32.1377C552.217 30.5578 550.442 26.8868 544.943 26.8868C539.303 26.8868 535.713 31.8868 535.713 39.6097C535.713 47.2212 539.426 52.7324 545.03 52.7324C548.924 52.7324 551.426 50.9108 552.973 47.4815L553.02 47.3792H563.989L563.971 47.5654C563.581 51.7568 559.647 62.6116 544.781 62.6116Z" fill="white"/>
<path d="M415.925 17.0169C408.325 17.0169 404.966 21.831 403.716 23.8571V18.6247H392.45V78.5596H403.716V56.4034C405.339 58.792 408.871 62.6303 415.925 62.6303C427.038 62.6303 433.799 53.6897 433.799 40.3812C433.799 26.9983 427.038 17.0169 415.925 17.0169ZM422.187 39.8048C422.187 47.3051 418.886 52.8905 412.928 52.8905C406.969 52.8905 403.542 47.2957 403.542 39.8048C403.542 32.1935 406.875 26.8218 412.928 26.8218C418.98 26.8218 422.187 32.1842 422.187 39.8048Z" fill="white"/>
<path d="M365.967 16.998C352.582 16.998 344.544 26.3939 344.544 40.037C344.544 53.68 352.668 62.6206 365.967 62.6206C379.265 62.6206 387.392 53.68 387.392 40.037C387.392 26.3939 379.344 16.998 365.967 16.998ZM365.967 52.6298C360.115 52.6298 356.067 47.8253 356.067 40.0277C356.067 31.9887 359.838 26.9702 365.967 26.9702C372.095 26.9702 375.859 31.998 375.859 40.0277C375.859 47.8253 371.81 52.6298 365.967 52.6298Z" fill="white"/>
<path d="M315.509 41.5984H309.399V18.1598H315.509C325.219 18.1598 329.372 23.3085 329.372 30.065C329.381 36.3197 324.837 41.5984 315.509 41.5984ZM309.399 61.3476V52.1467H316.273C332.914 52.1467 341.611 41.8399 341.611 29.6933C341.611 17.5464 332.408 7.73233 316.273 7.73233H309.399V0H297.303V7.73233H290.429C274.295 7.73233 265.092 17.5464 265.092 29.6933C265.092 41.8399 273.789 52.1467 290.429 52.1467H297.303V61.3476H309.399ZM291.183 41.5984C281.856 41.5984 277.321 36.3197 277.321 30.065C277.321 23.3178 281.484 18.1598 291.183 18.1598H297.294V41.5984H291.183Z" fill="white"/>
</svg>
