<svg width="398" height="222" viewBox="0 0 398 222" fill="none" xmlns="http://www.w3.org/2000/svg">
<path d="M303.3 42.8897L303.306 42.8803C303.921 41.8518 304.341 40.376 304.341 39.1439V35.1302H305.341V27.1028H304.341V19.0755H305.341V11.0481H304.341V7.03437C304.341 6.2853 304.177 5.55783 303.878 4.88631L304.791 4.47923C304.084 2.89268 302.746 1.59509 301.082 0.922644L300.708 1.84979C300.03 1.57598 299.29 1.42358 298.514 1.42358H295.865V0.423584H290.569V1.42358H287.92C286.994 1.42358 286.001 1.79903 285.1 2.24819L281.508 4.33761L281.005 3.4732L273.766 7.68364L274.269 8.54805L267.03 12.7585L266.527 11.8941L259.288 16.1045L259.791 16.9689L252.552 21.1794L252.049 20.315L244.81 24.5254L245.313 25.3898L238.074 29.6003L237.571 28.7359L230.332 32.9463L230.835 33.8107L223.596 38.0212L223.093 37.1568L215.855 41.3672L216.357 42.2316L209.118 46.4421L208.616 45.5777L201.377 49.7881L201.879 50.6525L198.26 52.7577L198.257 52.7593L195.344 54.4415L194.844 53.5755L189.018 56.94L189.518 57.806L183.691 61.1704L183.191 60.3044L177.365 63.6688L177.865 64.5348L174.966 66.2084C172.743 67.5932 169.769 67.5596 167.373 66.2246L167.366 66.2204L167.358 66.2161L163.592 64.0322L164.093 63.1671L156.56 58.7993L156.058 59.6644L148.525 55.2965L149.027 54.4314L141.494 50.0636L140.992 50.9287L133.459 46.5608L133.96 45.6957L126.427 41.3279L125.926 42.193L118.392 37.8251L118.894 36.96L111.361 32.5922L110.859 33.4573L103.326 29.0894L103.828 28.2243L96.2945 23.8565L95.7929 24.7216L92.0263 22.5377L92.0114 22.529L91.9968 22.5199C90.4577 21.5551 88.2645 21.5234 86.4303 22.5421L82.9952 24.5346L82.4934 23.6696L75.6076 27.6636L76.1094 28.5286L69.2236 32.5226L68.7218 31.6576L61.836 35.6516L62.3377 36.5167L55.4519 40.5107L54.9502 39.6457L48.0644 43.6397L48.5661 44.5047L41.6803 48.4987L41.1786 47.6337L34.2928 51.6277L34.7945 52.4928L27.9087 56.4868L27.4069 55.6218L20.5211 59.6158L21.0229 60.4808L14.1371 64.4748L13.6353 63.6098L6.74952 67.6038L7.25126 68.4688L3.80835 70.4659L3.80088 70.4702L3.79334 70.4744C2.00499 71.4708 1.01083 73.2532 1.01083 75.2672V79.458H0.0108337V87.8395H1.01083V96.2211H0.0108337V104.603H1.01083V112.984H0.0108337V121.366H1.01083V129.747H0.0108337V138.129H1.01083V146.51H0.0108337V154.892H1.01083V163.273H0.0108337V171.655H1.01083V180.037H0.0108337V188.418H1.01083V192.609C1.01083 193.644 1.28771 194.589 1.7597 195.395L0.896627 195.9C2.06902 197.904 4.26351 199.192 6.61175 199.184L6.60846 198.184C7.5255 198.181 8.47785 197.944 9.39602 197.41L12.5932 195.551L13.0958 196.416L19.4912 192.697L18.9885 191.833L25.3839 188.114L25.8866 188.979L32.2819 185.26L31.7793 184.396L38.1747 180.677L38.6773 181.542L45.0727 177.823L44.57 176.959L50.9654 173.24L51.468 174.105L57.8634 170.386L57.3608 169.521L63.7561 165.803L64.2588 166.667L70.6542 162.949L70.1515 162.084L76.5469 158.366L77.0495 159.23L83.4449 155.512L82.9422 154.647L86.1399 152.788L86.1479 152.783L86.1559 152.779C87.9442 151.782 88.9384 150 88.9384 147.986V143.648H89.9384V134.971H88.9384V126.294H89.9384V117.618H88.9384V108.941H89.9384V100.264H88.9384V91.5876H89.9384V82.9109H88.9384V78.5726C88.9384 77.1723 89.3148 75.8805 89.9611 74.7761L90.8242 75.2812C91.9966 73.2779 94.191 71.9898 96.5393 71.9975L96.5426 70.9975C97.8079 71.0017 99.1043 71.3312 100.327 72.041L303.3 42.8897ZM303.3 42.8897L303.295 42.8992L301.078 46.7948L301.947 47.2894L297.513 55.0807L296.644 54.5861L292.211 62.3774L293.08 62.872L288.646 70.6633L287.777 70.1687L283.343 77.96L284.212 78.4546L279.779 86.2459L278.91 85.7513L276.693 89.6465L303.3 42.8897ZM97.3326 173.32L101.639 165.726L102.509 166.219L106.815 158.625L105.945 158.131L110.251 150.537L111.121 151.03L115.428 143.436L114.558 142.942L118.864 135.348L119.734 135.841L121.886 132.045C122.28 131.352 122.777 130.788 123.34 130.352L122.727 129.561C124.136 128.468 125.923 128.029 127.704 128.309L127.549 129.297C128.265 129.409 128.986 129.658 129.677 130.055C129.678 130.056 129.679 130.056 129.68 130.057L133.552 132.298L134.053 131.432L141.804 135.918L141.304 136.784L149.055 141.27L149.556 140.404L157.307 144.89L156.806 145.756L160.682 147.999L160.688 148.002L160.695 148.006C163.087 149.342 166.056 149.375 168.276 147.989L172.049 145.799L171.547 144.934L179.122 140.537L179.624 141.402L187.199 137.005L186.697 136.14L194.272 131.742L194.774 132.607L202.349 128.21L201.847 127.345L209.422 122.948L209.924 123.812L217.5 119.415L216.998 118.55L224.573 114.153L225.075 115.018L228.848 112.827C228.85 112.826 228.853 112.825 228.855 112.823C230.684 111.805 232.871 111.837 234.405 112.801L234.42 112.81L234.435 112.819L237.606 114.661L238.108 113.796L244.45 117.479L243.948 118.344L250.29 122.027L250.792 121.162L257.134 124.845L256.632 125.71L262.974 129.393L263.476 128.528L269.818 132.212L269.315 133.076L275.657 136.759L276.16 135.895L282.502 139.578L281.999 140.443L288.341 144.126L288.843 143.261L295.185 146.944L294.683 147.809L297.853 149.65C299.075 150.361 300.37 150.691 301.635 150.694L301.638 149.694C303.981 149.701 306.171 148.412 307.34 146.407L308.204 146.911C308.847 145.808 309.222 144.518 309.222 143.119V138.781H308.222V130.104H309.222V121.428H308.222V112.751H309.222V104.074H308.222V95.3977H309.222V86.7211H308.222V78.0444H309.222V73.706C309.222 71.6909 310.214 69.9087 311.998 68.9128L312.006 68.9083L312.013 68.9037L315.204 67.0444L314.701 66.1804L321.082 62.4618L321.585 63.3258L327.966 59.6072L327.463 58.7432L333.844 55.0247L334.347 55.8887L340.728 52.1701L340.225 51.3061L346.606 47.5875L347.109 48.4515L353.491 44.7329L352.987 43.8689L359.368 40.1504L359.872 41.0144L366.253 37.2958L365.749 36.4318L372.13 32.7132L372.634 33.5772L379.015 29.8586L378.511 28.9947L384.892 25.2761L385.396 26.1401L388.586 24.2811L97.3326 173.32ZM97.3326 173.32L98.2025 173.814L96.0741 177.567C95.1677 179.625 94.5353 181.587 94.5353 183.729V187.595H93.5353V195.327H94.5353V203.059H93.5353V210.792H94.5353V214.658C94.5353 215.392 94.6921 216.106 94.977 216.769L94.0585 217.164C94.7402 218.748 96.0331 220.05 97.6079 220.738L98.0083 219.821C98.6685 220.11 99.3806 220.268 100.112 220.268H102.755V221.268H108.04V220.268H110.682C111.605 220.268 112.596 219.893 113.494 219.444L117.078 217.355L117.582 218.219L124.805 214.008L124.301 213.144L131.524 208.934L132.027 209.798L139.25 205.587L138.746 204.724L145.969 200.513L146.473 201.377L153.696 197.167L153.192 196.303L160.415 192.092L160.918 192.956L168.141 188.746L167.638 187.882L174.86 183.671L175.364 184.535L182.587 180.325L182.083 179.461L189.306 175.25L189.809 176.114L197.032 171.904L196.529 171.04L200.14 168.935L200.143 168.933L203.049 167.251L203.55 168.116L209.364 164.752L208.863 163.887L214.676 160.522L215.177 161.388L220.991 158.023L220.49 157.158L223.381 155.484C225.601 154.099 228.57 154.132 230.962 155.468L230.969 155.472L230.977 155.476L234.735 157.66L234.232 158.525L241.749 162.893L242.251 162.028L249.767 166.396L249.265 167.261L256.781 171.628L257.284 170.764L264.8 175.132L264.298 175.996L271.814 180.364L272.317 179.5L279.833 183.867L279.331 184.732L286.847 189.1L287.349 188.235L294.866 192.603L294.363 193.468L301.88 197.836L302.382 196.971L306.14 199.155L306.155 199.164L306.17 199.173C307.704 200.137 309.89 200.169 311.719 199.151C311.722 199.149 311.725 199.148 311.727 199.146L315.147 197.158L315.65 198.022L322.52 194.028L322.018 193.164L328.888 189.17L329.391 190.034L336.261 186.04L335.759 185.176L342.629 181.182L343.132 182.046L350.002 178.052L349.499 177.188L356.37 173.194L356.872 174.058L363.743 170.064L363.24 169.2L370.111 165.206L370.613 166.07L377.484 162.076L376.981 161.212L383.852 157.218L384.354 158.082L391.225 154.088L390.722 153.224L394.157 151.227L394.165 151.222L394.172 151.218C395.956 150.222 396.948 148.44 396.948 146.425V142.234H397.948V133.853H396.948V125.471H397.948V117.089H396.948V108.708H397.948V100.326H396.948V91.9448H397.948V83.5632H396.948V75.1817H397.948V66.8001H396.948V58.4186H397.948V50.0371H396.948V41.6555H397.948V33.274H396.948V29.0832C396.948 28.0486 396.673 27.1049 396.203 26.299L397.066 25.7952C395.898 23.7906 393.708 22.5012 391.364 22.5081M97.3326 173.32L391.364 22.5081M391.364 22.5081L391.367 23.5081C390.453 23.5108 389.503 23.7478 388.587 24.2808L391.364 22.5081ZM103.505 73.8826L100.328 72.0414L276.693 89.6469C276.298 90.3399 275.8 90.9044 275.235 91.3408L275.847 92.1318C274.434 93.2244 272.644 93.6628 270.859 93.3829L271.014 92.395C270.296 92.2824 269.573 92.0329 268.88 91.6357C268.879 91.6354 268.879 91.6351 268.878 91.6349L264.997 89.3936L264.497 90.2596L256.728 85.7737L257.228 84.9077L249.459 80.4218L248.959 81.2878L241.191 76.8019L241.691 75.9359L237.807 73.6929L237.8 73.6891L237.793 73.6854C235.397 72.3502 232.423 72.3168 230.199 73.7021L226.418 75.8923L226.919 76.7576L219.327 81.155L218.826 80.2896L211.234 84.687L211.735 85.5523L204.143 89.9497L203.642 89.0844L196.05 93.4817L196.551 94.347L188.959 98.7444L188.457 97.8791L180.865 102.276L181.367 103.142L173.775 107.539L173.273 106.674L169.492 108.864C169.49 108.866 169.487 108.867 169.485 108.868C167.651 109.887 165.457 109.855 163.918 108.891L163.903 108.881L163.888 108.873L160.71 107.031L160.209 107.896L153.853 104.213L154.354 103.348L147.998 99.6647L147.497 100.53L141.141 96.8467L141.642 95.9815L135.286 92.2984L134.784 93.1636L128.428 89.4804L128.93 88.6152L122.574 84.932L122.072 85.7973L115.716 82.1141L116.217 81.2489L109.861 77.5657L109.36 78.431L103.004 74.7478L103.505 73.8826Z" stroke="#2E4DC7" stroke-width="2" stroke-dasharray="8 8"/>
</svg>
