<?xml version="1.0" encoding="utf-8"?>
<!-- Generator: Adobe Illustrator 26.1.0, SVG Export Plug-In . SVG Version: 6.00 Build 0)  -->
<svg version="1.1" id="Слой_1" xmlns="http://www.w3.org/2000/svg" xmlns:xlink="http://www.w3.org/1999/xlink" x="0px" y="0px"
	 viewBox="0 0 624 304" style="enable-background:new 0 0 624 304;" xml:space="preserve">
<style type="text/css">
	.st0{fill:#FFFFFF;}
</style>
<g id="WIRE-2">
	<g id="tree-lines" transform="translate(-549.000000, -3151.000000)">
		<g id="Latest-research-deve" transform="translate(283.000000, 2446.000000)">
			<g id="Fichier-2" transform="translate(266.000000, 705.000000)">
				<g id="Group-2">
					<path id="Path" class="st0" d="M303.3,302.2V1.8c0-1.1-0.6-1.8-1.5-1.8s-1.5,0.7-1.5,1.8v300.4c0,1.1,0.6,1.8,1.5,1.8
						C302.7,304,303.3,302.9,303.3,302.2L303.3,302.2z"/>
					<path id="Path_00000049928376047381298350000005006273236555834558_" class="st0" d="M216.2,184.4
						c-26.1-19.9-10.6-56.7-13.8-82.1c-3.8-27.3-24.7-35.7-54.1-61.7c-2-1.4-3.9,0.8-1.8,2.3C157,53.6,173,63.1,182.7,72.8
						c12.7,12.1,17.1,26.2,16.8,41.9c-0.4,22.9-8.8,53.4,13.3,71.3c0.9,0.8,2.3,0.9,3.3,0.3C216.7,185.8,217,185.1,216.2,184.4
						L216.2,184.4z"/>
					<path id="Path_00000001634247090244842670000014310020304050788738_" class="st0" d="M138.4,190.2
						c-17.2-16.2-33.2-31.3-52.2-37.4c-9.2-2.7-18.2-4.2-27.9-3.9c-11.5,0.1-23,0.2-33.7-5.8c-1.9-1-3.5,2.1-1.5,3.1
						c18.1,10.2,39.3,3.1,58.5,8.8c20.6,5.9,38.8,23.1,54.4,37.6C137.7,194.3,140,191.5,138.4,190.2z"/>
					<path id="Path_00000016762531200745770760000004674119968584417433_" class="st0" d="M300,300c-5.6-49.4-36.1-99.8-88.2-114
						c-26.2-7.3-51-2.2-74.7,9.8s-44.6,24.7-70.6,30.1c-26,6.3-28.2,9.1-55.9-0.4c-2.3-0.7-2-4.1-0.2-3.4
						c27.8,9.4,28.3,6.3,56.8,0.1c14.3-3.3,28.1-8.3,41.3-15.2c11.7-6.2,23.2-13.1,35.2-18.2c21.8-10.2,46.9-12,70.1-5.4
						c23.2,6.5,43.5,20.3,57.7,39.2c16.5,22.5,30.1,49.7,31.5,77.3C303.8,302.1,300,302.1,300,300L300,300z"/>
					<path id="Path_00000163048153695363341720000008973819352048195721_" class="st0" d="M397.1,183.8
						c27.3-12.8,26.9-47.8,32.5-72.6c3.7-16.4,11.2-31,25.4-41.2c12.7-8.4,26.9-14.2,42.3-17.5c2.3-0.4,1.4-4-0.7-3.3
						c-28,6.6-56,19.7-66.5,47.8c-10.1,26.3-4.1,69.7-34.7,83.9C392.9,181.9,394.8,184.9,397.1,183.8L397.1,183.8z"/>
					<path id="Path_00000112601452072694852300000013342250300569096611_" class="st0" d="M477.8,196.2c0-0.1,0.1-0.1,0.2-0.2
						c13.8-15.2,29.2-31.8,49.4-39c18.8-6.9,41.2-1.4,58.2-12.7c1.9-1.1,0-4.3-1.9-2.9c-9.7,6.5-21,7.2-32.2,8
						c-9.7,0.4-19.5,2.2-28.5,5.8c-19.1,8-34.9,25-48.8,39.9c-1.5,1.8,1.1,4,2.6,2.5L477.8,196.2z"/>
					<path id="Path_00000027562740031513123200000013936763216169438647_" class="st0" d="M304,122.9c3.4-8.8,8.3-16.8,14.4-23.7
						c7.5-9.1,15.5-17.5,24.2-25.2c15.5-14.6,32.1-28.1,49.9-39.8c1.9-1.1,0-4.4-1.9-2.9c-18.5,12.4-35.8,26.3-51.8,41.2
						c-8.7,8-16.6,16.4-24.2,25.5c-6.1,7.3-11,15.3-14.4,24.1C299.8,124,303.2,124.8,304,122.9L304,122.9z"/>
					<path id="Path_00000163060157688760858810000003657877228113064081_" class="st0" d="M209.1,181.7c0,0.3,2,2.8,1.9,3.1
						c-6.2,13.3-13.3,28.7-23.1,38.2c-13.2,9.4-23.5,10.6-34.6,11.2c-9,0.2-18,2.3-26.8,6.3c-9.1,3.4-18,8.9-24,16.5
						c-0.5,0.6-1,1.7-0.4,2.4c0.3,0.5,1.1,0.8,1.8-0.1c8.1-9,18.9-14.3,28.6-17.9c10.7-4,20.6-3,30.9-4.8c10.3-1.7,21.1-5.3,29.9-15
						c8.9-9.6,15.2-23.5,21-37c-0.8-2.7-2.4-1-3.1-1.5c-2.3-1.4,0.3-0.8,0,0L209.1,181.7z"/>
					<path id="Path_00000152979055879227025560000015101850236013492415_" class="st0" d="M371.5,191.7c0.4,13,0.7,26.7,8,37.9
						c6.8,11.2,18.9,17.7,31,22.4c12.1,4.7,25.6,7.2,37.4,13.7c10.5,6.1,21.9,14.1,27.9,24.6c1.1,1.8,4.1,0,3-1.8
						c-5.7-8.7-13.5-16.2-23-22c-9.4-6.1-20.4-10.5-31.3-13.4c-13.9-4.3-29-9.7-38.5-20.6c-9.4-10.8-10.5-27.1-11-41.2
						C374.9,189.5,371,189.5,371.5,191.7L371.5,191.7z"/>
				</g>
			</g>
			<path id="Path_00000169553113411116047180000003048651285669380286_" class="st0" d="M476.2,884.8c-7.7-9.5-13.8-18.7-24.9-23.2
				c-9.7-3.7-21.1-9.4-29.2-13.1c-8-4.3-15.4-14.3-32.4-30.1c-9.6-10-27-16.5-30.1-17.8c-13.3-7.2-32.9-11.4-40.2-17.8
				c-1.8,0.2-3.1-0.7-2.7,2.6c10.3,10,53.5,18.6,71.1,36.6c9.3,9.4,17.1,19.3,28.3,27.6c8.6,3.9,13.8,7.3,22.6,10.9
				c0.1,0,5,1.9,5.1,2c13.6,3.9,21.3,13.3,30.3,24.4c1.4,1.7,3.7-0.1,2.3-1.8L476.2,884.8z"/>
		</g>
	</g>
</g>
</svg>
