<?xml version="1.0" encoding="utf-8"?>
<!-- Generator: Adobe Illustrator 26.1.0, SVG Export Plug-In . SVG Version: 6.00 Build 0)  -->
<svg version="1.1" id="Слой_1" xmlns="http://www.w3.org/2000/svg" xmlns:xlink="http://www.w3.org/1999/xlink" x="0px" y="0px"
	 viewBox="0 0 947 411" style="enable-background:new 0 0 947 411;" xml:space="preserve">
<style type="text/css">
	.st0{fill-rule:evenodd;clip-rule:evenodd;fill:#EDEDED;}
</style>
<path class="st0" d="M342.3,35.1c1.7,0.1,2.9,1.5,2.8,3.2c-1.4,21.4,9.3,67.8,64.1,81.7c29.5,7.5,46.9,28.1,56.6,50.5
	s11.9,46.7,10.9,62.4c-0.1,1.6-1.5,2.9-3.2,2.8c-1.7-0.1-2.9-1.5-2.8-3.2c0.9-15-1.2-38.3-10.4-59.7c-9.2-21.3-25.4-40.2-52.5-47.1
	c-58.5-14.8-70.1-64.7-68.6-87.9C339.3,36.3,340.7,35,342.3,35.1z"/>
<path class="st0" d="M473.7,1.1c1.7,0,3,1.3,3,3v403.5c0,1.7-1.3,3-3,3s-3-1.3-3-3V4.1C470.7,2.5,472,1.1,473.7,1.1z"/>
<path class="st0" d="M604.9,0c1.6,0.3,2.8,1.8,2.5,3.4c-2.9,18.2-20.7,57.4-68.8,71.5c-22.4,6.6-37.3,22.5-47,39.9
	c-9.6,17.5-13.8,36.3-14.6,48.2c-0.1,1.6-1.6,2.9-3.2,2.8c-1.7-0.1-2.9-1.5-2.8-3.2c0.9-12.6,5.2-32.3,15.3-50.7
	c10.1-18.4,26.2-35.6,50.5-42.8c45.4-13.3,62-50.3,64.6-66.7C601.8,0.9,603.3-0.2,604.9,0z"/>
<path class="st0" d="M542.5,267.6c-39.3,38.7-59.5,97.9-65.8,140.9c-0.2,1.6-1.8,2.8-3.4,2.5c-1.6-0.2-2.8-1.8-2.5-3.4
	c6.5-43.6,26.9-104.3,67.6-144.3c20.4-20,45.8-34.8,77.1-39.6c31.3-4.7,68.1,0.6,111,20.5h0.1h0.1c110.1,57.4,190.4,47.4,216.2,35.8
	c1.5-0.7,3.3,0,4,1.5s0,3.3-1.5,4c-27.9,12.6-110.2,22-221.4-35.9c-42.1-19.5-77.7-24.6-107.5-20
	C586.4,234.2,562.1,248.3,542.5,267.6z"/>
<path class="st0" d="M579.4,235.4c1.7,0,3,1.4,2.9,3.1c-0.2,8.3,3,21.2,13.2,32.7c10.2,11.4,27.6,21.5,56.3,23.7
	c59.7,4.6,94,36.6,103.9,52.6c0.9,1.4,0.4,3.2-1,4.1s-3.3,0.4-4.1-1c-8.9-14.4-41.4-45.4-99.2-49.8c-30-2.3-49-12.9-60.3-25.7
	c-11.3-12.6-14.9-27.1-14.7-36.8C576.4,236.7,577.8,235.4,579.4,235.4z"/>
<path class="st0" d="M902,157.6c1.1,1.2,1,3.1-0.3,4.2c-0.9,0.7-1.7,1.5-2.7,2.4c-5.3,4.8-12,10.8-22,15.1
	c-11.9,5-28.2,7.6-52.6,3.8c-30.8-4.8-51.6,5.3-65.9,19.6c-14.5,14.5-22.7,33.6-27.9,46.9c-0.6,1.5-2.3,2.3-3.9,1.7
	s-2.3-2.3-1.7-3.9c5.2-13.4,13.7-33.5,29.2-48.9c15.6-15.6,38.3-26.4,71.1-21.3c23.6,3.7,38.7,1.1,49.3-3.3c9.1-3.8,15-9.2,20.4-14
	c1-0.9,1.9-1.7,2.8-2.5C899.1,156.2,900.9,156.3,902,157.6z"/>
<path class="st0" d="M698.3,52.3c0.6,1.5-0.2,3.3-1.7,3.9c-16.1,6.3-46.7,31.2-37.1,80c10.2,52.3-24.7,84-43.6,93.3
	c-1.5,0.7-3.3,0.1-4-1.3c-0.7-1.5-0.1-3.3,1.4-4c17.4-8.6,49.9-38.1,40.4-86.8c-10.2-52.3,22.7-79.6,40.8-86.7
	C696,50,697.7,50.8,698.3,52.3z"/>
<path class="st0" d="M404.5,266.1C443.8,304.7,464,364,470.3,407c0.2,1.6,1.8,2.8,3.4,2.5c1.6-0.2,2.8-1.8,2.5-3.4
	c-6.5-43.6-26.9-104.3-67.6-144.3c-20.4-20-45.8-34.8-77.1-39.6c-31.3-4.7-68.1,0.6-111,20.5h-0.1h-0.1
	C110.4,300.2,30,290.2,4.2,278.6c-1.5-0.7-3.3,0-4,1.5s0,3.3,1.5,4c27.9,12.6,110.2,22,221.4-35.9c42.1-19.5,77.7-24.6,107.5-20
	C360.6,232.7,384.9,246.8,404.5,266.1z"/>
<path class="st0" d="M367.6,233.9c-1.7,0-3,1.4-2.9,3.1c0.2,8.3-3,21.2-13.2,32.7c-10.2,11.4-27.6,21.5-56.3,23.7
	c-59.7,4.6-94,36.6-103.9,52.6c-0.9,1.4-0.4,3.2,1,4.1s3.3,0.4,4.1-1c8.9-14.4,41.4-45.4,99.2-49.8c30-2.3,49-12.9,60.3-25.6
	c11.3-12.6,15-27.1,14.7-36.8C370.6,235.2,369.2,233.9,367.6,233.9z"/>
<path class="st0" d="M45,156.1c-1.1,1.2-1,3.1,0.3,4.2c0.9,0.7,1.7,1.5,2.7,2.4c5.4,4.8,12.1,10.9,22.1,15.1
	c11.9,5,28.2,7.6,52.6,3.8c30.8-4.8,51.6,5.3,65.9,19.6c14.5,14.5,22.7,33.6,27.9,46.9c0.6,1.5,2.3,2.3,3.9,1.7
	c1.5-0.6,2.3-2.3,1.7-3.9c-5.2-13.4-13.7-33.5-29.2-48.9c-15.6-15.6-38.3-26.4-71.1-21.3c-23.6,3.7-38.7,1.1-49.3-3.3
	c-9.1-3.8-15-9.2-20.4-14c-1-0.9-1.9-1.7-2.8-2.5C47.9,154.7,46.1,154.8,45,156.1z"/>
<path class="st0" d="M248.7,50.8c-0.6,1.5,0.2,3.3,1.7,3.9c16.1,6.3,46.7,31.2,37.1,80c-10.2,52.3,24.7,84,43.6,93.3
	c1.5,0.7,3.3,0.1,4-1.3c0.7-1.5,0.1-3.3-1.4-4c-17.4-8.6-49.9-38.1-40.4-86.8c10.2-52.3-22.7-79.6-40.8-86.7
	C251,48.6,249.3,49.3,248.7,50.8z"/>
<path class="st0" d="M368.6,102.5c0.3,1.1,1.3,3.1,0.5,3.5c-8.2,4.3-23.9,21-19,54.3c5.2,35.7-12.2,57-21.9,63.3
	c-0.8,0.5-3.6-0.1-4-1.1c-0.3-1.1-0.1-2.2,0.7-2.7c8.9-5.9,25.7-26,20.8-59.2c-5.2-35.7,11.7-54.3,21-59.2
	C367.3,100.9,368.2,101.4,368.6,102.5z"/>
</svg>
