<svg width="799" height="492" viewBox="0 0 799 492" fill="none" xmlns="http://www.w3.org/2000/svg">
<rect x="1" y="1" width="797" height="489.339" fill="#0C1022" stroke="#1E2B5C" stroke-width="2"/>
<path d="M0.919067 490.421C0.919067 302.276 0.919067 0.918213 0.919067 0.918213H797.478V490.421C486.638 490.421 2.12787 490.421 2.12787 490.421M2.12787 164.086H798.082M2.12787 327.253H798.082M2.12787 82.5019H798.082M2.12787 245.669H798.082M2.12787 408.837H798.082M2.12787 41.7101H798.082M2.12787 204.878H798.082M2.12787 368.045H798.082M2.12787 123.294H798.082M2.12787 286.461H798.082M2.12787 449.629H798.082M531.555 0.918337V490.421M265.633 0.918337V490.421M664.517 0.918337V490.421M398.594 0.918337L398.594 490.421M132.672 0.918337V490.421M730.997 0.918337V490.421M465.075 0.918337V490.421M199.152 0.918337V490.421M598.036 0.918337V490.421M332.113 0.918337L332.114 490.421M66.191 0.918337V490.421" stroke="#131C3D"/>
<path d="M503.3 177.89L503.306 177.88C503.921 176.852 504.341 175.376 504.341 174.144V170.13H505.341V162.103H504.341V154.075H505.341V146.048H504.341V142.034C504.341 141.285 504.177 140.558 503.878 139.886L504.791 139.479C504.084 137.893 502.746 136.595 501.082 135.923L500.708 136.85C500.03 136.576 499.29 136.424 498.514 136.424H495.865V135.424H490.569V136.424H487.92C486.994 136.424 486.001 136.799 485.1 137.248L481.508 139.338L481.005 138.473L473.766 142.684L474.269 143.548L467.03 147.759L466.527 146.894L459.288 151.105L459.791 151.969L452.552 156.179L452.049 155.315L444.81 159.525L445.313 160.39L438.074 164.6L437.571 163.736L430.332 167.946L430.835 168.811L423.596 173.021L423.093 172.157L415.855 176.367L416.357 177.232L409.118 181.442L408.616 180.578L401.377 184.788L401.879 185.653L398.26 187.758L398.257 187.759L395.344 189.442L394.844 188.576L389.018 191.94L389.518 192.806L383.691 196.17L383.191 195.304L377.365 198.669L377.865 199.535L374.966 201.208C372.743 202.593 369.769 202.56 367.373 201.225L367.366 201.22L367.358 201.216L363.592 199.032L364.093 198.167L356.56 193.799L356.058 194.664L348.525 190.297L349.027 189.431L341.494 185.064L340.992 185.929L333.459 181.561L333.96 180.696L326.427 176.328L325.926 177.193L318.392 172.825L318.894 171.96L311.361 167.592L310.859 168.457L303.326 164.089L303.828 163.224L296.294 158.856L295.793 159.722L292.026 157.538L292.011 157.529L291.997 157.52C290.458 156.555 288.265 156.523 286.43 157.542L282.995 159.535L282.493 158.67L275.608 162.664L276.109 163.529L269.224 167.523L268.722 166.658L261.836 170.652L262.338 171.517L255.452 175.511L254.95 174.646L248.064 178.64L248.566 179.505L241.68 183.499L241.179 182.634L234.293 186.628L234.794 187.493L227.909 191.487L227.407 190.622L220.521 194.616L221.023 195.481L214.137 199.475L213.635 198.61L206.75 202.604L207.251 203.469L203.808 205.466L203.801 205.47L203.793 205.474C202.005 206.471 201.011 208.253 201.011 210.267V214.458H200.011V222.84H201.011V231.221H200.011V239.603H201.011V247.984H200.011V256.366H201.011V264.747H200.011V273.129H201.011V281.51H200.011V289.892H201.011V298.273H200.011V306.655H201.011V315.037H200.011V323.418H201.011V327.609C201.011 328.644 201.288 329.589 201.76 330.395L200.897 330.9C202.069 332.904 204.264 334.192 206.612 334.184L206.608 333.184C207.525 333.181 208.478 332.944 209.396 332.41L212.593 330.551L213.096 331.416L219.491 327.697L218.989 326.833L225.384 323.114L225.887 323.979L232.282 320.26L231.779 319.396L238.175 315.677L238.677 316.542L245.073 312.823L244.57 311.959L250.965 308.24L251.468 309.105L257.863 305.386L257.361 304.521L263.756 300.803L264.259 301.667L270.654 297.949L270.151 297.084L276.547 293.366L277.05 294.23L283.445 290.512L282.942 289.647L286.14 287.788L286.148 287.783L286.156 287.779C287.944 286.782 288.938 285 288.938 282.986V278.648H289.938V269.971H288.938V261.294H289.938V252.618H288.938V243.941H289.938V235.264H288.938V226.588H289.938V217.911H288.938V213.573C288.938 212.172 289.315 210.88 289.961 209.776L290.824 210.281C291.997 208.278 294.191 206.99 296.539 206.998L296.543 205.998C297.808 206.002 299.104 206.331 300.327 207.041L503.3 177.89ZM503.3 177.89L503.295 177.899L501.078 181.795L501.947 182.289L497.513 190.081L496.644 189.586L492.211 197.377L493.08 197.872L488.646 205.663L487.777 205.169L483.343 212.96L484.212 213.455L479.779 221.246L478.91 220.751L476.693 224.646L503.3 177.89ZM297.333 308.32L301.639 300.726L302.509 301.219L306.815 293.625L305.945 293.131L310.251 285.537L311.121 286.03L315.428 278.436L314.558 277.942L318.864 270.348L319.734 270.841L321.886 267.045C322.28 266.352 322.777 265.788 323.34 265.352L322.727 264.561C324.136 263.468 325.923 263.029 327.704 263.309L327.549 264.297C328.265 264.409 328.986 264.658 329.677 265.055C329.678 265.056 329.679 265.056 329.68 265.057L333.552 267.298L334.053 266.432L341.804 270.918L341.304 271.784L349.055 276.27L349.556 275.404L357.307 279.89L356.806 280.756L360.682 282.999L360.688 283.002L360.695 283.006C363.087 284.342 366.056 284.375 368.276 282.989L372.049 280.799L371.547 279.934L379.122 275.537L379.624 276.402L387.199 272.005L386.697 271.14L394.272 266.742L394.774 267.607L402.349 263.21L401.847 262.345L409.422 257.948L409.924 258.812L417.5 254.415L416.998 253.55L424.573 249.153L425.075 250.018L428.848 247.827C428.85 247.826 428.853 247.825 428.855 247.823C430.684 246.805 432.871 246.837 434.405 247.801L434.42 247.81L434.435 247.819L437.606 249.661L438.108 248.796L444.45 252.479L443.948 253.344L450.29 257.027L450.792 256.162L457.134 259.845L456.632 260.71L462.974 264.393L463.476 263.528L469.818 267.212L469.315 268.076L475.657 271.759L476.16 270.895L482.502 274.578L481.999 275.443L488.341 279.126L488.843 278.261L495.185 281.944L494.683 282.809L497.853 284.65C499.075 285.361 500.37 285.691 501.635 285.694L501.638 284.694C503.981 284.701 506.171 283.412 507.34 281.407L508.204 281.911C508.847 280.808 509.222 279.518 509.222 278.119V273.781H508.222V265.104H509.222V256.428H508.222V247.751H509.222V239.074H508.222V230.398H509.222V221.721H508.222V213.044H509.222V208.706C509.222 206.691 510.214 204.909 511.998 203.913L512.006 203.908L512.013 203.904L515.204 202.044L514.701 201.18L521.082 197.462L521.585 198.326L527.966 194.607L527.463 193.743L533.844 190.025L534.347 190.889L540.728 187.17L540.225 186.306L546.606 182.588L547.109 183.452L553.491 179.733L552.987 178.869L559.368 175.15L559.872 176.014L566.253 172.296L565.749 171.432L572.13 167.713L572.634 168.577L579.015 164.859L578.511 163.995L584.892 160.276L585.396 161.14L588.586 159.281L297.333 308.32ZM297.333 308.32L298.203 308.814L296.074 312.567C295.168 314.625 294.535 316.587 294.535 318.729V322.595H293.535V330.327H294.535V338.059H293.535V345.792H294.535V349.658C294.535 350.392 294.692 351.106 294.977 351.769L294.058 352.164C294.74 353.748 296.033 355.05 297.608 355.738L298.008 354.821C298.668 355.11 299.381 355.268 300.112 355.268H302.755V356.268H308.04V355.268H310.682C311.605 355.268 312.596 354.893 313.494 354.444L317.078 352.355L317.582 353.219L324.805 349.008L324.301 348.144L331.524 343.934L332.027 344.798L339.25 340.587L338.746 339.724L345.969 335.513L346.473 336.377L353.696 332.167L353.192 331.303L360.415 327.092L360.918 327.956L368.141 323.746L367.638 322.882L374.86 318.671L375.364 319.535L382.587 315.325L382.083 314.461L389.306 310.25L389.809 311.114L397.032 306.904L396.529 306.04L400.14 303.935L400.143 303.933L403.049 302.251L403.55 303.116L409.364 299.752L408.863 298.887L414.676 295.522L415.177 296.388L420.991 293.023L420.49 292.158L423.381 290.484C425.601 289.099 428.57 289.132 430.962 290.468L430.969 290.472L430.977 290.476L434.735 292.66L434.232 293.525L441.749 297.893L442.251 297.028L449.767 301.396L449.265 302.261L456.781 306.628L457.284 305.764L464.8 310.132L464.298 310.996L471.814 315.364L472.317 314.5L479.833 318.867L479.331 319.732L486.847 324.1L487.349 323.235L494.866 327.603L494.363 328.468L501.88 332.836L502.382 331.971L506.14 334.155L506.155 334.164L506.17 334.173C507.704 335.137 509.89 335.169 511.719 334.151C511.722 334.149 511.725 334.148 511.727 334.146L515.147 332.158L515.65 333.022L522.52 329.028L522.018 328.164L528.888 324.17L529.391 325.034L536.261 321.04L535.759 320.176L542.629 316.182L543.132 317.046L550.002 313.052L549.499 312.188L556.37 308.194L556.872 309.058L563.743 305.064L563.24 304.2L570.111 300.206L570.613 301.07L577.484 297.076L576.981 296.212L583.852 292.218L584.354 293.082L591.225 289.088L590.722 288.224L594.157 286.227L594.165 286.222L594.172 286.218C595.956 285.222 596.948 283.44 596.948 281.425V277.234H597.948V268.853H596.948V260.471H597.948V252.089H596.948V243.708H597.948V235.326H596.948V226.945H597.948V218.563H596.948V210.182H597.948V201.8H596.948V193.419H597.948V185.037H596.948V176.656H597.948V168.274H596.948V164.083C596.948 163.049 596.673 162.105 596.203 161.299L597.066 160.795C595.898 158.791 593.708 157.501 591.364 157.508M297.333 308.32L591.364 157.508M591.364 157.508L591.367 158.508C590.453 158.511 589.503 158.748 588.587 159.281L591.364 157.508ZM303.505 208.883L300.328 207.041L476.693 224.647C476.298 225.34 475.8 225.904 475.235 226.341L475.847 227.132C474.434 228.224 472.644 228.663 470.859 228.383L471.014 227.395C470.296 227.282 469.573 227.033 468.88 226.636C468.879 226.635 468.879 226.635 468.878 226.635L464.997 224.394L464.497 225.26L456.728 220.774L457.228 219.908L449.459 215.422L448.959 216.288L441.191 211.802L441.691 210.936L437.807 208.693L437.8 208.689L437.793 208.685C435.397 207.35 432.423 207.317 430.199 208.702L426.418 210.892L426.919 211.758L419.327 216.155L418.826 215.29L411.234 219.687L411.735 220.552L404.143 224.95L403.642 224.084L396.05 228.482L396.551 229.347L388.959 233.744L388.457 232.879L380.865 237.276L381.367 238.142L373.775 242.539L373.273 241.674L369.492 243.864C369.49 243.866 369.487 243.867 369.485 243.868C367.651 244.887 365.457 244.855 363.918 243.891L363.903 243.881L363.888 243.873L360.71 242.031L360.209 242.896L353.853 239.213L354.354 238.348L347.998 234.665L347.497 235.53L341.141 231.847L341.642 230.982L335.286 227.298L334.784 228.164L328.428 224.48L328.93 223.615L322.574 219.932L322.072 220.797L315.716 217.114L316.217 216.249L309.861 212.566L309.36 213.431L303.004 209.748L303.505 208.883Z" stroke="#2E4DC7" stroke-width="2" stroke-dasharray="8 8"/>
</svg>
