<!-- by TradingView --><svg width="18" height="18" fill="none" xmlns="http://www.w3.org/2000/svg"><path fill="#EF5350" d="M0 0h18v18H0z" shape-rendering="crispEdges"/><path fill="#F8F9FD" d="M0 2h18v2H0zM0 6h18v2H0zM0 10h18v2H0zM0 14h18v2H0z" shape-rendering="crispEdges"/><path fill-rule="evenodd" clip-rule="evenodd" d="M0 12h11V0H0v12z" fill="#143EB2" shape-rendering="crispEdges"/><path d="M6.635 9.344c-1.585 0-2.87-1.274-2.87-2.844 0-1.57 1.285-2.844 2.87-2.844.494 0 .96.124 1.365.342A3.536 3.536 0 005.531 3C3.581 3 2 4.567 2 6.5S3.581 10 5.531 10c.961 0 1.832-.38 2.469-.998-.406.218-.87.342-1.365.342z" fill="#FDD835"/><path d="M7.5 4l.212 1.569.873-1.321-.49 1.505 1.36-.812L8.36 6.086l1.577-.142-1.482.556 1.482.556-1.577-.142L9.455 8.06l-1.36-.812.49 1.505-.873-1.321L7.5 9l-.212-1.569-.873 1.321.49-1.505-1.36.812L6.64 6.914l-1.577.142L6.545 6.5l-1.482-.556 1.577.142L5.545 4.94l1.36.812-.49-1.505.873 1.321L7.5 4z" fill="#FDD835"/></svg>