<!-- by TradingView --><svg width="18" height="18" viewBox="0 0 18 18" xmlns="http://www.w3.org/2000/svg"><path d="M18 18V0H0v18h18z" fill="#F8F9FD" shape-rendering="crispEdges"/><path d="M0 13v5h18v-5H0z" fill="#FDD835" shape-rendering="crispEdges"/><path d="M18 5V0H0v5h18z" fill="#4CAF50" shape-rendering="crispEdges"/><path d="M0 7v4h18V7H0z" fill="#2A2E39" shape-rendering="crispEdges"/><path d="M0 0v18l9-9-9-9z" fill="#EF5350" shape-rendering="crispEdges"/><path fill="#F8F9FD" d="M2 9h3v2H2z"/><path fill="#FDD835" d="M2 7h3v2H2z"/><path d="M6.02 7.2l-.56-.56-1.79 1.8-1.8-1.8-.55.55L3.12 9l-1.8 1.79.56.55 1.79-1.8 1.8 1.8.55-.55-1.8-1.8 1.8-1.79z" fill="#2A2E39"/></svg>