<!-- by TradingView --><svg width="18" height="18" viewBox="0 0 18 18" xmlns="http://www.w3.org/2000/svg"><path d="M0 18h18V0H0v18z" fill="#EF5350" shape-rendering="crispEdges"/><path d="M0 5h18V0H0v5z" fill="#FDD835" shape-rendering="crispEdges"/><path d="M0 13h18V5H0v8z" fill="#1565C0" shape-rendering="crispEdges"/><path d="M15.7 10.5l-.48.38.2.57-.5-.34-.47.37.17-.58-.5-.34.6-.02.17-.58.2.57.6-.02zM14.48 8.4l-.32.51.39.46-.59-.14-.32.51-.04-.6-.59-.15.56-.22-.04-.6.39.46.56-.23zM12.61 6.84l-.12.59.52.3-.6.06-.12.59-.25-.55-.6.06.45-.4-.25-.55.53.3.44-.4zM10.33 6l.08.6.6.1-.55.27.09.6-.42-.44-.54.27.28-.54-.42-.43.6.1.28-.53zM7.9 6l.28.54.59-.1-.42.42.28.54-.54-.27-.42.44.09-.6-.55-.26.6-.11.08-.6zM5.6 6.84l.45.4.53-.3-.25.55.45.4-.6-.06-.25.55-.12-.59-.6-.06.52-.3-.13-.6zM3.74 8.4l.56.23.39-.47-.05.6.56.23-.58.15-.04.6-.32-.51-.59.14.39-.46-.32-.5zM2.52 10.5l.6.03.21-.57.17.58.6.02-.5.34.17.58-.48-.37-.5.34.2-.57-.47-.37z" fill="#F8F9FD"/></svg>